<svg width="25" height="24" viewBox="0 0 25 24" fill="none" xmlns="http://www.w3.org/2000/svg">
<path d="M19.3534 4.97498C17.9644 3.58658 16.1948 2.64124 14.2685 2.25851C12.3423 1.87577 10.3457 2.07284 8.53145 2.82478C6.71716 3.57672 5.16659 4.84976 4.0758 6.48293C2.98502 8.1161 2.40301 10.036 2.40338 12C2.40338 14.634 3.44942 17.1603 5.31151 19.0233C7.1736 20.8863 9.69932 21.9337 12.3334 21.935C13.6368 21.935 14.9277 21.6802 16.1334 21.185C17.3349 20.6775 18.428 19.9442 19.3534 19.025C20.276 18.1025 21.0079 17.0073 21.5072 15.8019C22.0066 14.5966 22.2636 13.3047 22.2636 12C22.2636 10.6953 22.0066 9.40337 21.5072 8.19801C21.0079 6.99265 20.276 5.89746 19.3534 4.97498ZM18.6534 18.315C17.2235 19.7511 15.3472 20.6575 13.3334 20.885V14.325H15.2134C15.4786 14.325 15.733 14.2196 15.9205 14.0321C16.108 13.8445 16.2134 13.5902 16.2134 13.325C16.2134 13.0598 16.108 12.8054 15.9205 12.6179C15.733 12.4303 15.4786 12.325 15.2134 12.325H13.3334V9.58498C13.3334 9.31976 13.4387 9.06541 13.6263 8.87787C13.8138 8.69034 14.0682 8.58498 14.3334 8.58498H15.5334C15.7986 8.58498 16.053 8.47962 16.2405 8.29209C16.428 8.10455 16.5334 7.8502 16.5334 7.58498C16.5334 7.31976 16.428 7.06541 16.2405 6.87787C16.053 6.69034 15.7986 6.58498 15.5334 6.58498H13.8334C13.1703 6.58498 12.5345 6.84837 12.0656 7.31721C11.5968 7.78605 11.3334 8.42194 11.3334 9.08498V12.325H9.46338C9.19817 12.325 8.94381 12.4303 8.75628 12.6179C8.56874 12.8054 8.46338 13.0598 8.46338 13.325C8.46338 13.5902 8.56874 13.8445 8.75628 14.0321C8.94381 14.2196 9.19817 14.325 9.46338 14.325H11.3334V20.885C9.47627 20.6731 7.73266 19.8831 6.34883 18.6266C4.965 17.3702 4.01089 15.7107 3.62128 13.8826C3.23167 12.0545 3.42624 10.1502 4.17751 8.43864C4.92878 6.72711 6.19879 5.29486 7.80813 4.3442C9.41748 3.39354 11.2848 2.97252 13.1464 3.1406C15.008 3.30868 16.7697 4.05737 18.1828 5.28092C19.5958 6.50447 20.5887 8.14104 21.0213 9.95946C21.4538 11.7779 21.3041 13.6862 20.5934 15.415C20.1398 16.4977 19.481 17.4825 18.6534 18.315Z" fill="#020611"/>
</svg>
