<svg width="49" height="48" viewBox="0 0 49 48" fill="none" xmlns="http://www.w3.org/2000/svg">
<rect x="0.666656" width="48" height="48" rx="10" fill="#CD4805"/>
<path d="M32.0767 25C31.8567 25 31.6267 24.93 31.4067 24.88C30.9615 24.7805 30.5238 24.6501 30.0967 24.49C29.6327 24.3212 29.1228 24.33 28.665 24.5146C28.2071 24.6992 27.8337 25.0466 27.6167 25.49L27.3967 25.95C26.4255 25.3992 25.5283 24.7271 24.7267 23.95C23.9495 23.1484 23.2775 22.2512 22.7267 21.28L23.1867 21.07C23.63 20.8529 23.9774 20.4795 24.1621 20.0217C24.3467 19.5639 24.3554 19.0539 24.1867 18.59C24.0278 18.159 23.8976 17.7181 23.7967 17.27C23.7467 17.05 23.7067 16.82 23.6767 16.6C23.5552 15.8956 23.1863 15.2577 22.6363 14.8012C22.0863 14.3447 21.3914 14.0996 20.6767 14.11H17.6667C17.2439 14.1094 16.8258 14.1982 16.4398 14.3706C16.0537 14.5429 15.7085 14.7949 15.4267 15.11C15.139 15.4337 14.9248 15.8158 14.7988 16.23C14.6728 16.6443 14.6379 17.081 14.6967 17.51C15.2402 21.6721 17.1419 25.5387 20.1067 28.51C23.078 31.4748 26.9445 33.3764 31.1067 33.92C31.2365 33.9299 31.3668 33.9299 31.4967 33.92C32.2341 33.9211 32.9461 33.6505 33.4967 33.16C33.8118 32.8782 34.0637 32.5329 34.2361 32.1469C34.4084 31.7609 34.4972 31.3428 34.4967 30.92V27.92C34.4913 27.229 34.2475 26.5611 33.8066 26.0291C33.3657 25.4971 32.7546 25.1336 32.0767 25ZM32.5667 31C32.5663 31.1395 32.5368 31.2775 32.48 31.4049C32.4231 31.5324 32.3403 31.6465 32.2367 31.74C32.1271 31.8399 31.9966 31.9141 31.8548 31.9573C31.713 32.0006 31.5633 32.0117 31.4167 31.99C27.6849 31.5026 24.2169 29.802 21.5467 27.15C18.8741 24.4775 17.1587 20.9974 16.6667 17.25C16.6449 17.1033 16.6561 16.9537 16.6993 16.8119C16.7426 16.67 16.8168 16.5396 16.9167 16.43C17.0113 16.3252 17.127 16.2415 17.2563 16.1847C17.3856 16.1278 17.5254 16.0989 17.6667 16.1H20.6667C20.8978 16.0944 21.1238 16.169 21.3061 16.3112C21.4885 16.4534 21.6159 16.6544 21.6667 16.88C21.6667 17.15 21.7567 17.43 21.8167 17.7C21.9322 18.2239 22.086 18.7386 22.2767 19.24L20.8767 19.9C20.636 20.0105 20.449 20.2119 20.3567 20.46C20.2566 20.7035 20.2566 20.9765 20.3567 21.22C21.7959 24.3028 24.2739 26.7808 27.3567 28.22C27.6001 28.32 27.8732 28.32 28.1167 28.22C28.3648 28.1276 28.5662 27.9406 28.6767 27.7L29.3067 26.3C29.8226 26.4881 30.3504 26.6418 30.8867 26.76C31.1467 26.82 31.4267 26.87 31.6967 26.91C31.9222 26.9608 32.1232 27.0882 32.2655 27.2705C32.4077 27.4529 32.4823 27.6788 32.4767 27.91L32.5667 31ZM26.6667 14C26.4367 14 26.1967 14 25.9667 14C25.7014 14.0225 25.456 14.1495 25.2844 14.353C25.1129 14.5565 25.0291 14.8198 25.0517 15.085C25.0742 15.3502 25.2012 15.5956 25.4047 15.7672C25.6081 15.9388 25.8714 16.0225 26.1367 16H26.6667C28.258 16 29.7841 16.6321 30.9093 17.7574C32.0345 18.8826 32.6667 20.4087 32.6667 22C32.6667 22.18 32.6667 22.35 32.6667 22.53C32.6445 22.7938 32.7278 23.0556 32.8984 23.2581C33.069 23.4606 33.3129 23.5871 33.5767 23.61H33.6567C33.907 23.611 34.1486 23.5181 34.3338 23.3496C34.5189 23.1811 34.6341 22.9493 34.6567 22.7C34.6567 22.47 34.6567 22.23 34.6567 22C34.6567 19.88 33.8152 17.8467 32.3171 16.3467C30.8189 14.8467 28.7867 14.0027 26.6667 14ZM28.6667 22C28.6667 22.2652 28.772 22.5196 28.9596 22.7071C29.1471 22.8946 29.4014 23 29.6667 23C29.9319 23 30.1862 22.8946 30.3738 22.7071C30.5613 22.5196 30.6667 22.2652 30.6667 22C30.6667 20.9391 30.2452 19.9217 29.4951 19.1716C28.7449 18.4214 27.7275 18 26.6667 18C26.4014 18 26.1471 18.1054 25.9596 18.2929C25.772 18.4804 25.6667 18.7348 25.6667 19C25.6667 19.2652 25.772 19.5196 25.9596 19.7071C26.1471 19.8946 26.4014 20 26.6667 20C27.1971 20 27.7058 20.2107 28.0809 20.5858C28.4559 20.9609 28.6667 21.4696 28.6667 22Z" fill="white"/>
</svg>
