<svg width="49" height="48" viewBox="0 0 49 48" fill="none" xmlns="http://www.w3.org/2000/svg">
<rect x="0.333374" width="48" height="48" rx="10" fill="#CD4805"/>
<path d="M33.3334 14H15.3334C15.0682 14 14.8138 14.1054 14.6263 14.2929C14.4387 14.4804 14.3334 14.7348 14.3334 15V33C14.3334 33.2652 14.4387 33.5196 14.6263 33.7071C14.8138 33.8946 15.0682 34 15.3334 34H33.3334C33.5986 34 33.8529 33.8946 34.0405 33.7071C34.228 33.5196 34.3334 33.2652 34.3334 33V15C34.3334 14.7348 34.228 14.4804 34.0405 14.2929C33.8529 14.1054 33.5986 14 33.3334 14ZM20.3334 32H16.3334V28H20.3334V32ZM20.3334 26H16.3334V22H20.3334V26ZM20.3334 20H16.3334V16H20.3334V20ZM26.3334 32H22.3334V28H26.3334V32ZM26.3334 26H22.3334V22H26.3334V26ZM26.3334 20H22.3334V16H26.3334V20ZM32.3334 32H28.3334V28H32.3334V32ZM32.3334 26H28.3334V22H32.3334V26ZM32.3334 20H28.3334V16H32.3334V20Z" fill="white"/>
</svg>
