<svg width="184" height="177" viewBox="0 0 184 177" fill="none" xmlns="http://www.w3.org/2000/svg">
<g clip-path="url(#clip0_97_9)">
<path d="M4.84001 128.82C3.40001 128.82 2.23001 130 2.23001 131.45C2.23001 132.9 3.40001 134.08 4.84001 134.08C6.28001 134.08 7.45001 132.9 7.45001 131.45C7.45001 130 6.28001 128.82 4.84001 128.82Z" fill="#CD4805"/>
<path d="M49.5 134.08C50.9415 134.08 52.11 132.903 52.11 131.45C52.11 129.998 50.9415 128.82 49.5 128.82C48.0585 128.82 46.89 129.998 46.89 131.45C46.89 132.903 48.0585 134.08 49.5 134.08Z" fill="#CD4805"/>
<path d="M27.17 128.82C25.73 128.82 24.56 130 24.56 131.45C24.56 132.9 25.73 134.08 27.17 134.08C28.61 134.08 29.78 132.9 29.78 131.45C29.78 130 28.61 128.82 27.17 128.82Z" fill="#CD4805"/>
<path d="M26.8 107.44C25.36 107.44 24.19 108.62 24.19 110.07C24.19 111.52 25.36 112.7 26.8 112.7C28.24 112.7 29.41 111.52 29.41 110.07C29.41 108.62 28.24 107.44 26.8 107.44Z" fill="#CD4805"/>
<path d="M4.46999 107.44C3.02998 107.44 1.85999 108.62 1.85999 110.07C1.85999 111.52 3.02998 112.7 4.46999 112.7C5.90999 112.7 7.07999 111.52 7.07999 110.07C7.07999 108.62 5.90999 107.44 4.46999 107.44Z" fill="#CD4805"/>
<path d="M71.46 107.44C70.02 107.44 68.85 108.62 68.85 110.07C68.85 111.52 70.02 112.7 71.46 112.7C72.9 112.7 74.07 111.52 74.07 110.07C74.07 108.62 72.9 107.44 71.46 107.44Z" fill="#CD4805"/>
<path d="M49.13 107.44C47.69 107.44 46.52 108.62 46.52 110.07C46.52 111.52 47.69 112.7 49.13 112.7C50.57 112.7 51.74 111.52 51.74 110.07C51.74 108.62 50.57 107.44 49.13 107.44Z" fill="#CD4805"/>
<path d="M4.84001 171.6C3.40001 171.6 2.23001 172.78 2.23001 174.23C2.23001 175.68 3.40001 176.86 4.84001 176.86C6.28001 176.86 7.45001 175.68 7.45001 174.23C7.45001 172.78 6.28001 171.6 4.84001 171.6Z" fill="#CD4805"/>
<path d="M26.8 150.21C25.36 150.21 24.19 151.39 24.19 152.84C24.19 154.29 25.36 155.47 26.8 155.47C28.24 155.47 29.41 154.29 29.41 152.84C29.41 151.39 28.24 150.21 26.8 150.21Z" fill="#CD4805"/>
<path d="M4.46999 150.21C3.02998 150.21 1.85999 151.39 1.85999 152.84C1.85999 154.29 3.02998 155.47 4.46999 155.47C5.90999 155.47 7.07999 154.29 7.07999 152.84C7.07999 151.39 5.90999 150.21 4.46999 150.21Z" fill="#CD4805"/>
<path d="M93.42 86.05C91.98 86.05 90.81 87.23 90.81 88.68C90.81 90.13 91.98 91.31 93.42 91.31C94.86 91.31 96.03 90.13 96.03 88.68C96.03 87.23 94.86 86.05 93.42 86.05Z" fill="#CD4805"/>
<path d="M48.76 86.05C47.32 86.05 46.15 87.23 46.15 88.68C46.15 90.13 47.32 91.31 48.76 91.31C50.2 91.31 51.37 90.13 51.37 88.68C51.37 87.23 50.2 86.05 48.76 86.05Z" fill="#CD4805"/>
<path d="M71.09 91.31C72.5315 91.31 73.7 90.1326 73.7 88.68C73.7 87.2275 72.5315 86.05 71.09 86.05C69.6485 86.05 68.48 87.2275 68.48 88.68C68.48 90.1326 69.6485 91.31 71.09 91.31Z" fill="#CD4805"/>
<path d="M26.42 86.05C24.98 86.05 23.81 87.23 23.81 88.68C23.81 90.13 24.98 91.31 26.42 91.31C27.86 91.31 29.03 90.13 29.03 88.68C29.03 87.23 27.87 86.05 26.42 86.05Z" fill="#CD4805"/>
<path d="M4.09001 86.05C2.65001 86.05 1.48001 87.23 1.48001 88.68C1.48001 90.13 2.65001 91.31 4.09001 91.31C5.53001 91.31 6.70001 90.13 6.70001 88.68C6.70001 87.23 5.53001 86.05 4.09001 86.05Z" fill="#CD4805"/>
<path d="M93.04 64.66C91.6 64.66 90.43 65.84 90.43 67.29C90.43 68.74 91.6 69.92 93.04 69.92C94.48 69.92 95.65 68.74 95.65 67.29C95.65 65.84 94.48 64.66 93.04 64.66Z" fill="#CD4805"/>
<path d="M70.71 64.66C69.27 64.66 68.1 65.84 68.1 67.29C68.1 68.74 69.27 69.92 70.71 69.92C72.15 69.92 73.32 68.74 73.32 67.29C73.32 65.84 72.15 64.66 70.71 64.66Z" fill="#CD4805"/>
<path d="M48.38 64.66C46.94 64.66 45.77 65.84 45.77 67.29C45.77 68.74 46.94 69.92 48.38 69.92C49.82 69.92 50.99 68.74 50.99 67.29C50.99 65.84 49.82 64.66 48.38 64.66Z" fill="#CD4805"/>
<path d="M115.38 64.66C113.94 64.66 112.77 65.84 112.77 67.29C112.77 68.74 113.94 69.92 115.38 69.92C116.82 69.92 117.99 68.74 117.99 67.29C117.99 65.84 116.82 64.66 115.38 64.66Z" fill="#CD4805"/>
<path d="M3.71999 64.66C2.27999 64.66 1.10999 65.84 1.10999 67.29C1.10999 68.74 2.27999 69.92 3.71999 69.92C5.15999 69.92 6.32999 68.74 6.32999 67.29C6.32999 65.84 5.15999 64.66 3.71999 64.66Z" fill="#CD4805"/>
<path d="M26.05 64.66C24.61 64.66 23.44 65.84 23.44 67.29C23.44 68.74 24.61 69.92 26.05 69.92C27.49 69.92 28.66 68.74 28.66 67.29C28.66 65.84 27.49 64.66 26.05 64.66Z" fill="#CD4805"/>
<path d="M3.34999 43.27C1.90999 43.27 0.73999 44.45 0.73999 45.9C0.73999 47.35 1.90999 48.53 3.34999 48.53C4.78999 48.53 5.95999 47.35 5.95999 45.9C5.95999 44.45 4.78999 43.27 3.34999 43.27Z" fill="#CD4805"/>
<path d="M92.67 48.53C94.1115 48.53 95.28 47.3525 95.28 45.9C95.28 44.4475 94.1115 43.27 92.67 43.27C91.2285 43.27 90.06 44.4475 90.06 45.9C90.06 47.3525 91.2285 48.53 92.67 48.53Z" fill="#CD4805"/>
<path d="M137.33 48.53C138.771 48.53 139.94 47.3525 139.94 45.9C139.94 44.4475 138.771 43.27 137.33 43.27C135.889 43.27 134.72 44.4475 134.72 45.9C134.72 47.3525 135.889 48.53 137.33 48.53Z" fill="#CD4805"/>
<path d="M70.34 43.27C68.9 43.27 67.73 44.45 67.73 45.9C67.73 47.35 68.9 48.53 70.34 48.53C71.78 48.53 72.95 47.35 72.95 45.9C72.95 44.45 71.78 43.27 70.34 43.27Z" fill="#CD4805"/>
<path d="M48.01 43.27C46.57 43.27 45.4 44.45 45.4 45.9C45.4 47.35 46.57 48.53 48.01 48.53C49.45 48.53 50.62 47.35 50.62 45.9C50.62 44.45 49.45 43.27 48.01 43.27Z" fill="#CD4805"/>
<path d="M25.68 43.27C24.24 43.27 23.07 44.45 23.07 45.9C23.07 47.35 24.24 48.53 25.68 48.53C27.12 48.53 28.29 47.35 28.29 45.9C28.29 44.45 27.12 43.27 25.68 43.27Z" fill="#CD4805"/>
<path d="M115 43.27C113.56 43.27 112.39 44.45 112.39 45.9C112.39 47.35 113.56 48.53 115 48.53C116.44 48.53 117.61 47.35 117.61 45.9C117.61 44.45 116.44 43.27 115 43.27Z" fill="#CD4805"/>
<path d="M2.98 27.14C4.42146 27.14 5.59 25.9625 5.59 24.51C5.59 23.0575 4.42146 21.88 2.98 21.88C1.53853 21.88 0.369995 23.0575 0.369995 24.51C0.369995 25.9625 1.53853 27.14 2.98 27.14Z" fill="#CD4805"/>
<path d="M114.63 21.89C113.19 21.89 112.02 23.07 112.02 24.52C112.02 25.97 113.19 27.15 114.63 27.15C116.07 27.15 117.24 25.97 117.24 24.52C117.24 23.07 116.07 21.89 114.63 21.89Z" fill="#CD4805"/>
<path d="M25.31 21.89C23.87 21.89 22.7 23.07 22.7 24.52C22.7 25.97 23.87 27.15 25.31 27.15C26.75 27.15 27.92 25.97 27.92 24.52C27.92 23.07 26.75 21.89 25.31 21.89Z" fill="#CD4805"/>
<path d="M69.97 21.89C68.53 21.89 67.36 23.07 67.36 24.52C67.36 25.97 68.53 27.15 69.97 27.15C71.41 27.15 72.58 25.97 72.58 24.52C72.58 23.07 71.41 21.89 69.97 21.89Z" fill="#CD4805"/>
<path d="M47.64 21.89C46.2 21.89 45.03 23.07 45.03 24.52C45.03 25.97 46.2 27.15 47.64 27.15C49.08 27.15 50.25 25.97 50.25 24.52C50.25 23.07 49.08 21.89 47.64 21.89Z" fill="#CD4805"/>
<path d="M92.3 21.89C90.86 21.89 89.69 23.07 89.69 24.52C89.69 25.97 90.86 27.15 92.3 27.15C93.74 27.15 94.91 25.97 94.91 24.52C94.91 23.07 93.74 21.89 92.3 21.89Z" fill="#CD4805"/>
<path d="M159.29 21.89C157.85 21.89 156.68 23.07 156.68 24.52C156.68 25.97 157.85 27.15 159.29 27.15C160.73 27.15 161.9 25.97 161.9 24.52C161.9 23.07 160.74 21.89 159.29 21.89Z" fill="#CD4805"/>
<path d="M136.96 21.89C135.52 21.89 134.35 23.07 134.35 24.52C134.35 25.97 135.52 27.15 136.96 27.15C138.4 27.15 139.57 25.97 139.57 24.52C139.57 23.07 138.41 21.89 136.96 21.89Z" fill="#CD4805"/>
<path d="M24.94 5.74999C26.38 5.74999 27.55 4.56999 27.55 3.11999C27.55 1.66999 26.38 0.48999 24.94 0.48999C23.5 0.48999 22.33 1.66999 22.33 3.11999C22.33 4.56999 23.5 5.74999 24.94 5.74999Z" fill="#CD4805"/>
<path d="M2.61 5.75C4.05 5.75 5.22 4.57 5.22 3.12C5.22 1.67 4.04 0.5 2.61 0.5C1.18 0.5 0 1.68 0 3.13C0 4.58 1.17 5.76 2.61 5.76V5.75Z" fill="#CD4805"/>
<path d="M158.92 5.76C160.361 5.76 161.53 4.58251 161.53 3.13C161.53 1.67749 160.361 0.5 158.92 0.5C157.479 0.5 156.31 1.67749 156.31 3.13C156.31 4.58251 157.479 5.76 158.92 5.76Z" fill="#CD4805"/>
<path d="M91.93 5.74999C93.37 5.74999 94.54 4.56999 94.54 3.11999C94.54 1.66999 93.37 0.48999 91.93 0.48999C90.49 0.48999 89.32 1.66999 89.32 3.11999C89.32 4.56999 90.49 5.74999 91.93 5.74999Z" fill="#CD4805"/>
<path d="M114.26 5.74999C115.7 5.74999 116.87 4.56999 116.87 3.11999C116.87 1.66999 115.7 0.48999 114.26 0.48999C112.82 0.48999 111.65 1.66999 111.65 3.11999C111.65 4.56999 112.82 5.74999 114.26 5.74999Z" fill="#CD4805"/>
<path d="M136.59 5.74999C138.03 5.74999 139.2 4.56999 139.2 3.11999C139.2 1.66999 138.03 0.48999 136.59 0.48999C135.15 0.48999 133.98 1.66999 133.98 3.11999C133.98 4.56999 135.15 5.74999 136.59 5.74999Z" fill="#CD4805"/>
<path d="M47.27 5.74999C48.71 5.74999 49.88 4.56999 49.88 3.11999C49.88 1.66999 48.71 0.48999 47.27 0.48999C45.83 0.48999 44.66 1.66999 44.66 3.11999C44.66 4.56999 45.83 5.74999 47.27 5.74999Z" fill="#CD4805"/>
<path d="M181.25 5.74999C182.69 5.74999 183.86 4.56999 183.86 3.11999C183.86 1.66999 182.7 0.48999 181.25 0.48999C179.8 0.48999 178.64 1.66999 178.64 3.11999C178.64 4.56999 179.81 5.74999 181.25 5.74999Z" fill="#CD4805"/>
<path d="M69.6 5.74999C71.04 5.74999 72.21 4.56999 72.21 3.11999C72.21 1.66999 71.04 0.48999 69.6 0.48999C68.16 0.48999 66.99 1.66999 66.99 3.11999C66.99 4.56999 68.16 5.74999 69.6 5.74999Z" fill="#CD4805"/>
</g>
<defs>
<clipPath id="clip0_97_9">
<rect width="183.86" height="176.35" fill="white" transform="translate(0 0.5)"/>
</clipPath>
</defs>
</svg>
