<svg width="48" height="48" viewBox="0 0 48 48" fill="none" xmlns="http://www.w3.org/2000/svg">
<rect width="48" height="48" rx="10" fill="#CD4805"/>
<path d="M34.3359 33.4687C34.2744 33.5457 34.1983 33.6098 34.112 33.6574C34.0257 33.7049 33.9308 33.735 33.8329 33.7459C33.7349 33.7568 33.6358 33.7482 33.5411 33.7208C33.4465 33.6933 33.3582 33.6475 33.2812 33.5859C33.2466 33.5578 29.6419 30.7499 24 30.7499C18.3581 30.7499 14.7525 33.5624 14.7187 33.5868C14.6417 33.6484 14.5534 33.6942 14.4587 33.7216C14.364 33.749 14.2648 33.7575 14.1668 33.7465C13.9689 33.7245 13.7879 33.6247 13.6636 33.4692C13.5393 33.3136 13.4818 33.1151 13.5039 32.9172C13.526 32.7193 13.6257 32.5383 13.7812 32.414C13.9341 32.2921 17.3925 29.5771 22.9959 29.2781C22.7045 28.1167 22.6004 26.9163 22.6875 25.7221C22.8506 23.6868 23.7112 20.9756 26.7188 18.9271C26.2056 18.7999 25.678 18.7404 25.1494 18.7499C23.3681 18.8081 22.2487 19.8478 21.7275 21.9299C21.6873 22.0925 21.5938 22.237 21.462 22.3403C21.3301 22.4436 21.1675 22.4998 21 22.4999C20.9387 22.5003 20.8775 22.4927 20.8181 22.4774C20.6252 22.4292 20.4593 22.3063 20.357 22.1357C20.2547 21.9652 20.2243 21.761 20.2725 21.5681C21.1397 18.104 23.3766 17.3099 25.1006 17.2556C25.7854 17.2407 26.469 17.3179 27.1331 17.4853C26.7741 16.8918 26.2491 16.2731 25.5197 15.9618C24.5822 15.5643 23.4412 15.7378 22.1156 16.4784C21.9416 16.5754 21.7361 16.5992 21.5445 16.5447C21.3529 16.4902 21.1907 16.3618 21.0937 16.1878C20.9968 16.0137 20.9729 15.8083 21.0274 15.6166C21.0819 15.425 21.2103 15.2629 21.3844 15.1659C23.1412 14.1862 24.7331 13.9903 26.1169 14.5846C27.2878 15.0871 28.0603 16.064 28.5422 16.9284C29.1216 16.0246 29.8434 15.4124 30.6413 15.1528C31.7531 14.7899 32.9513 15.0853 34.2038 16.0312C34.3554 16.1535 34.4536 16.33 34.4774 16.5233C34.5013 16.7167 34.4489 16.9118 34.3315 17.0672C34.214 17.2227 34.0407 17.3263 33.8482 17.3562C33.6557 17.3861 33.4591 17.3399 33.3 17.2274C32.4647 16.5965 31.7278 16.3781 31.1109 16.5778C30.4275 16.7981 29.9044 17.5153 29.5763 18.1349C30.2508 18.2718 30.8999 18.5131 31.5 18.8503C32.8697 19.6331 34.5 21.2924 34.5 24.7509C34.5 24.9498 34.421 25.1406 34.2803 25.2812C34.1397 25.4219 33.9489 25.5009 33.75 25.5009C33.5511 25.5009 33.3603 25.4219 33.2197 25.2812C33.079 25.1406 33 24.9498 33 24.7509C33 22.5515 32.2434 21.0009 30.75 20.1571C30.576 20.0584 30.3959 19.9708 30.2109 19.8946C30.6832 20.8547 30.8488 21.9367 30.6853 22.994C30.5675 23.7763 30.2843 24.5244 29.8547 25.1887C29.7397 25.3499 29.5656 25.4592 29.3705 25.4925C29.1753 25.5259 28.9748 25.4807 28.8128 25.3669C28.6508 25.253 28.5404 25.0797 28.5056 24.8847C28.4709 24.6898 28.5147 24.489 28.6275 24.3262C28.6969 24.224 30.1584 22.0406 28.3219 19.6978C25.7906 21.1237 24.3947 23.1899 24.1819 25.8468C24.099 26.9978 24.2206 28.1544 24.5409 29.2631C30.4144 29.4328 34.0584 32.294 34.2159 32.4187C34.3705 32.5424 34.4698 32.7223 34.4923 32.919C34.5148 33.1157 34.4586 33.3133 34.3359 33.4687ZM14.25 25.1249C14.25 24.6058 14.404 24.0983 14.6924 23.6666C14.9808 23.2349 15.3908 22.8984 15.8705 22.6998C16.3501 22.5011 16.8779 22.4491 17.3871 22.5504C17.8963 22.6517 18.364 22.9017 18.7312 23.2688C19.0983 23.6359 19.3483 24.1036 19.4496 24.6128C19.5508 25.122 19.4989 25.6498 19.3002 26.1295C19.1015 26.6091 18.7651 27.0191 18.3334 27.3076C17.9017 27.596 17.3942 27.7499 16.875 27.7499C16.1788 27.7499 15.5111 27.4734 15.0188 26.9811C14.5266 26.4888 14.25 25.8211 14.25 25.1249ZM15.75 25.1249C15.75 25.3475 15.816 25.565 15.9396 25.75C16.0632 25.935 16.2389 26.0792 16.4445 26.1643C16.65 26.2495 16.8762 26.2717 17.0945 26.2283C17.3127 26.1849 17.5132 26.0778 17.6705 25.9204C17.8278 25.7631 17.935 25.5627 17.9784 25.3444C18.0218 25.1262 17.9995 24.9 17.9144 24.6944C17.8292 24.4889 17.685 24.3132 17.5 24.1895C17.315 24.0659 17.0975 23.9999 16.875 23.9999C16.5766 23.9999 16.2905 24.1185 16.0795 24.3295C15.8685 24.5404 15.75 24.8266 15.75 25.1249Z" fill="white"/>
</svg>
