<svg width="48" height="48" viewBox="0 0 48 48" fill="none" xmlns="http://www.w3.org/2000/svg">
<rect width="48" height="48" rx="10" fill="#CD4805"/>
<g clip-path="url(#clip0_97_78)">
<path fill-rule="evenodd" clip-rule="evenodd" d="M32.485 15.515C32.155 15.185 31.55 14.858 30.875 14.61C30.0164 14.2967 29.115 14.1159 28.202 14.074C26.412 13.989 24.274 14.419 22.232 15.994C22.2003 16.0058 22.1693 16.0191 22.139 16.034L19.31 17.45C19.13 17.54 18.9814 17.6821 18.8835 17.8579C18.7856 18.0337 18.743 18.2349 18.7613 18.4352C18.7795 18.6356 18.8578 18.8258 18.9858 18.981C19.1139 19.1361 19.2858 19.2491 19.479 19.305C18.8337 20.6003 18.4343 22.0041 18.301 23.445C18.226 24.227 18.172 25.375 18.116 26.567C18.093 27.069 18.069 27.58 18.043 28.074C17.426 28.124 16.855 28.183 16.389 28.258C15.899 28.338 15.347 28.435 14.951 28.761C14.782 28.901 14.515 29.198 14.515 29.658C14.515 30.581 15.347 31.435 15.957 32.044C16.566 32.654 17.42 33.486 18.343 33.486C18.803 33.486 19.101 33.219 19.24 33.05C19.566 32.654 19.663 32.103 19.743 31.612C19.8262 31.0633 19.8875 30.5116 19.927 29.958C20.421 29.932 20.931 29.908 21.434 29.885C22.626 29.829 23.774 29.775 24.556 29.7C25.997 29.5668 27.4007 29.1674 28.696 28.522C28.752 28.7153 28.8649 28.8872 29.0201 29.0152C29.1753 29.1432 29.3655 29.2215 29.5658 29.2398C29.7662 29.258 29.9674 29.2154 30.1431 29.1175C30.3189 29.0196 30.461 28.871 30.551 28.691L31.965 25.862C31.9806 25.8314 31.9946 25.8001 32.007 25.768C33.581 23.727 34.011 21.589 33.926 19.799C33.8841 18.886 33.7034 17.9846 33.39 17.126C33.142 16.451 32.816 15.845 32.485 15.515ZM21.435 27.88C20.983 27.901 20.518 27.923 20.052 27.947C20.076 27.481 20.098 27.016 20.119 26.565C20.172 25.428 20.22 24.381 20.292 23.633C20.492 21.525 21.346 19.582 22.586 18.343C24.486 16.443 26.498 15.994 28.106 16.071C28.8157 16.1028 29.5164 16.2424 30.184 16.485C30.485 16.596 30.814 16.724 31.069 16.927L31.071 16.928L31.072 16.93C31.275 17.184 31.402 17.514 31.514 17.815C31.714 18.359 31.889 19.076 31.928 19.892C32.005 21.501 31.556 23.514 29.657 25.413C28.417 26.653 26.475 27.507 24.367 27.707C23.617 27.779 22.571 27.827 21.434 27.88H21.435ZM16.966 30.192C17.242 30.155 17.56 30.122 17.908 30.09C17.878 30.44 17.844 30.757 17.807 31.032C17.5066 30.7732 17.2248 30.4925 16.966 30.192ZM26.828 21.171C27.1093 21.4524 27.4908 21.6106 27.8886 21.6107C28.2865 21.6108 28.6681 21.4528 28.9495 21.1715C29.2309 20.8903 29.389 20.5087 29.3891 20.1109C29.3892 19.713 29.2313 19.3314 28.95 19.05C28.6686 18.7686 28.287 18.6106 27.889 18.6106C27.491 18.6106 27.1094 18.7686 26.828 19.05C26.5466 19.3314 26.3885 19.7131 26.3885 20.111C26.3885 20.509 26.5466 20.8906 26.828 21.172V21.171Z" fill="white"/>
</g>
<defs>
<clipPath id="clip0_97_78">
<rect width="24" height="24" fill="white" transform="translate(12 12)"/>
</clipPath>
</defs>
</svg>
