<svg width="48" height="48" viewBox="0 0 48 48" fill="none" xmlns="http://www.w3.org/2000/svg">
<rect width="48" height="48" rx="10" fill="#CD4805"/>
<path d="M19.02 20.75H19.01C18.6 20.75 18.27 21.09 18.27 21.5C18.27 21.91 18.61 22.25 19.02 22.25C19.43 22.25 19.77 21.91 19.77 21.5C19.77 21.09 19.43 20.75 19.02 20.75Z" fill="white"/>
<path d="M22.02 20.75H22.01C21.6 20.75 21.27 21.09 21.27 21.5C21.27 21.91 21.61 22.25 22.02 22.25C22.43 22.25 22.77 21.91 22.77 21.5C22.77 21.09 22.43 20.75 22.02 20.75Z" fill="white"/>
<path d="M18.02 26.25H18.01C17.6 26.25 17.27 26.59 17.27 27C17.27 27.41 17.61 27.75 18.02 27.75C18.43 27.75 18.77 27.41 18.77 27C18.77 26.59 18.43 26.25 18.02 26.25Z" fill="white"/>
<path d="M21.02 26.25H21.01C20.6 26.25 20.27 26.59 20.27 27C20.27 27.41 20.61 27.75 21.02 27.75C21.43 27.75 21.77 27.41 21.77 27C21.77 26.59 21.43 26.25 21.02 26.25Z" fill="white"/>
<path d="M24.02 26.25H24.01C23.6 26.25 23.27 26.59 23.27 27C23.27 27.41 23.61 27.75 24.02 27.75C24.43 27.75 24.77 27.41 24.77 27C24.77 26.59 24.43 26.25 24.02 26.25Z" fill="white"/>
<path d="M33.34 30.33C32.86 30.09 32.37 29.9 31.89 29.74C32.63 28.87 33.11 27.79 33.24 26.64L33.75 22.09C33.77 21.88 33.71 21.67 33.56 21.51C33.42 21.35 33.21 21.26 33 21.26H30.41C29.94 21.26 29.5 21.44 29.17 21.77L27.76 23.18C27.76 23.18 27.65 23.25 27.58 23.25H26.5L24.94 19.35C24.67 18.68 24.04 18.25 23.32 18.25H22.75V17C22.75 16.04 21.96 15.25 21 15.25H20C19.04 15.25 18.25 16.04 18.25 17V18.25H17C16.04 18.25 15.25 19.04 15.25 20V23.25H15C14.59 23.25 14.25 23.59 14.25 24V26C14.25 27.45 14.79 28.81 15.74 29.85C15.38 29.99 15.02 30.14 14.66 30.33C14.29 30.52 14.14 30.97 14.33 31.34C14.52 31.71 14.97 31.86 15.34 31.67C16.55 31.05 17.74 30.78 19 30.75C20.01 30.75 20.58 30.96 21.25 31.21C21.95 31.46 22.74 31.75 24 31.75C25.26 31.75 26.05 31.46 26.75 31.21C27.42 30.97 28 30.76 29 30.75H29.03C30.23 30.75 31.45 31.06 32.65 31.67C32.76 31.72 32.88 31.75 32.99 31.75C33.26 31.75 33.53 31.6 33.66 31.34C33.85 30.97 33.7 30.52 33.33 30.33H33.34ZM19.75 17C19.75 16.86 19.86 16.75 20 16.75H21C21.14 16.75 21.25 16.86 21.25 17V18.25H19.75V17ZM16.75 20C16.75 19.86 16.86 19.75 17 19.75H23.32C23.42 19.75 23.51 19.81 23.55 19.91L24.89 23.25H16.75V20ZM29 29.25C27.73 29.25 26.94 29.54 26.24 29.8C25.57 30.04 25 30.25 24 30.25C23 30.25 22.43 30.04 21.76 29.8C21.06 29.55 20.27 29.26 19 29.25H18.96C18.45 29.25 17.95 29.31 17.44 29.4C16.36 28.59 15.74 27.35 15.74 26V24.75H27.24V26.53C27.24 26.53 27.22 26.51 27.21 26.49L26.91 25.88C26.72 25.51 26.27 25.36 25.9 25.54C25.53 25.72 25.38 26.18 25.56 26.55L25.86 27.16C26.26 27.97 27.08 28.47 27.98 28.47C28.88 28.47 29.69 27.97 30.1 27.16L30.4 26.55C30.59 26.18 30.43 25.73 30.06 25.54C29.69 25.36 29.24 25.51 29.05 25.88L28.75 26.49C28.75 26.49 28.73 26.51 28.72 26.53V24.3C28.72 24.3 28.77 24.26 28.79 24.24L30.2 22.83C30.2 22.83 30.31 22.76 30.38 22.76H32.13L31.72 26.48C31.6 27.6 31.01 28.63 30.13 29.34C29.76 29.29 29.38 29.27 29.01 29.27H28.97L29 29.25Z" fill="white"/>
</svg>
