<svg width="48" height="48" viewBox="0 0 48 48" fill="none" xmlns="http://www.w3.org/2000/svg">
<rect width="48" height="48" rx="10" fill="#CD4805"/>
<path d="M15.193 15.726C15.2342 15.2534 15.4516 14.8135 15.8021 14.4937C16.1526 14.174 16.6106 13.9977 17.085 14C17.535 14 17.951 14.156 18.278 14.417C18.628 14.1467 19.0578 14.0001 19.5 14C19.96 14 20.384 14.155 20.722 14.417C21.0604 14.146 21.4814 13.9988 21.915 14C22.891 14 23.722 14.737 23.807 15.726C23.891 16.701 24 18.209 24 19.5C24.0001 20.2755 23.7998 21.0378 23.4186 21.713C23.0373 22.3883 22.488 22.9535 21.824 23.354C21.602 23.488 21.544 23.654 21.55 23.74C21.677 25.674 22 30.692 22 31.497C22 32.1601 21.7366 32.7959 21.2678 33.2648C20.7989 33.7336 20.163 33.997 19.5 33.997C18.837 33.997 18.2011 33.7336 17.7322 33.2648C17.2634 32.7959 17 32.1601 17 31.497C17 30.692 17.323 25.674 17.45 23.74C17.455 23.653 17.398 23.488 17.176 23.354C16.512 22.9535 15.9627 22.3883 15.5814 21.713C15.2002 21.0378 14.9999 20.2755 15 19.5C15 18.21 15.109 16.701 15.193 15.726ZM21.5 19.25C21.5 19.4489 21.421 19.6397 21.2803 19.7804C21.1397 19.921 20.9489 20 20.75 20C20.5511 20 20.3603 19.921 20.2197 19.7804C20.079 19.6397 20 19.4489 20 19.25V16C20 15.8674 19.9473 15.7402 19.8536 15.6465C19.7598 15.5527 19.6326 15.5 19.5 15.5C19.3674 15.5 19.2402 15.5527 19.1464 15.6465C19.0527 15.7402 19 15.8674 19 16V19.25C19 19.4489 18.921 19.6397 18.7803 19.7804C18.6397 19.921 18.4489 20 18.25 20C18.0511 20 17.8603 19.921 17.7197 19.7804C17.579 19.6397 17.5 19.4489 17.5 19.25V15.915C17.5 15.805 17.4563 15.6994 17.3784 15.6216C17.3006 15.5437 17.1951 15.5 17.085 15.5C16.9862 15.4983 16.8903 15.5339 16.8166 15.5997C16.7428 15.6655 16.6965 15.7566 16.687 15.855C16.604 16.82 16.5 18.275 16.5 19.5C16.5 20.59 17.08 21.544 17.952 22.07C18.497 22.4 18.999 23.03 18.947 23.838C18.817 25.818 18.5 30.756 18.5 31.498C18.5 31.7632 18.6054 32.0176 18.7929 32.2051C18.9804 32.3927 19.2348 32.498 19.5 32.498C19.7652 32.498 20.0196 32.3927 20.2071 32.2051C20.3946 32.0176 20.5 31.7632 20.5 31.498C20.5 30.756 20.183 25.818 20.053 23.838C20.001 23.03 20.503 22.4 21.048 22.07C21.491 21.8031 21.8575 21.4263 22.112 20.976C22.3664 20.5257 22.5 20.0172 22.5 19.5C22.5 18.276 22.396 16.82 22.313 15.855C22.3035 15.7566 22.2572 15.6655 22.1834 15.5997C22.1097 15.5339 22.0138 15.4983 21.915 15.5C21.8049 15.5 21.6994 15.5437 21.6216 15.6216C21.5437 15.6994 21.5 15.805 21.5 15.915V19.25ZM25 19.75C25 18.225 25.6058 16.7625 26.6841 15.6842C27.7625 14.6058 29.225 14 30.75 14C30.9489 14 31.1397 14.079 31.2803 14.2197C31.421 14.3603 31.5 14.5511 31.5 14.75V23.25C31.5 23.568 31.606 25.145 31.725 26.892L31.73 26.975C31.86 28.883 32 30.958 32 31.497C32 32.1601 31.7366 32.7959 31.2678 33.2648C30.7989 33.7336 30.163 33.997 29.5 33.997C28.837 33.997 28.2011 33.7336 27.7322 33.2648C27.2634 32.7959 27 32.1601 27 31.497C27 30.983 27.128 28.886 27.252 26.963C27.314 25.992 27.377 25.051 27.424 24.353L27.447 24H26.75C26.5202 24 26.2926 23.9548 26.0803 23.8668C25.868 23.7789 25.6751 23.65 25.5126 23.4875C25.3501 23.325 25.2212 23.132 25.1332 22.9197C25.0453 22.7074 25 22.4798 25 22.25V19.75ZM28.998 23.302L28.977 23.616C28.8982 24.7639 28.8218 25.9119 28.748 27.06C28.622 29.02 28.5 31.046 28.5 31.497C28.5 31.7622 28.6054 32.0166 28.7929 32.2041C28.9804 32.3917 29.2348 32.497 29.5 32.497C29.7652 32.497 30.0196 32.3917 30.2071 32.2041C30.3946 32.0166 30.5 31.7622 30.5 31.497C30.5 31.017 30.362 28.971 30.228 26.993L30.221 26.889C30.108 25.23 30 23.627 30 23.25V15.566C29.0184 15.742 28.13 16.2575 27.4902 17.0224C26.8503 17.7873 26.4998 18.7528 26.5 19.75V22.25C26.5 22.388 26.612 22.5 26.75 22.5H28.25C28.3529 22.5 28.4546 22.5212 28.5489 22.5623C28.6432 22.6033 28.7281 22.6633 28.7983 22.7385C28.8684 22.8137 28.9224 22.9025 28.9567 22.9995C28.9911 23.0964 29.0051 23.1994 28.998 23.302Z" fill="white"/>
</svg>
